<svg width="18" height="18" viewBox="0 0 18 18" fill="none" xmlns="http://www.w3.org/2000/svg">
<path d="M17.125 1.5V6.5C17.125 6.845 16.845 7.125 16.5 7.125C16.155 7.125 15.875 6.845 15.875 6.5V3.0092L11.1084 7.77584C10.9867 7.8975 10.8267 7.95915 10.6667 7.95915C10.5067 7.95915 10.3466 7.89834 10.225 7.77584C9.98081 7.53167 9.98081 7.13581 10.225 6.89164L14.9916 2.125H11.5C11.155 2.125 10.875 1.845 10.875 1.5C10.875 1.155 11.155 0.875 11.5 0.875H16.5C16.5817 0.875 16.6626 0.891755 16.7393 0.923421C16.8918 0.986755 17.0134 1.10843 17.0776 1.26176C17.1084 1.33759 17.125 1.41833 17.125 1.5ZM6.89164 10.225L2.125 14.9916V11.5C2.125 11.155 1.845 10.875 1.5 10.875C1.155 10.875 0.875 11.155 0.875 11.5V16.5C0.875 16.5817 0.891755 16.6626 0.923421 16.7393C0.986755 16.8918 1.10824 17.0132 1.26074 17.0766C1.33741 17.1082 1.41833 17.125 1.5 17.125H6.5C6.845 17.125 7.125 16.845 7.125 16.5C7.125 16.155 6.845 15.875 6.5 15.875H3.0092L7.77584 11.1084C8.02 10.8642 8.02 10.4683 7.77584 10.2242C7.53167 9.97999 7.13581 9.98081 6.89164 10.225Z" fill="#2E2F31"/>
</svg>
